<svg id="svg" version="1.1" xmlns="http://www.w3.org/2000/svg" xmlns:xlink="http://www.w3.org/1999/xlink" width="400" height="528" viewBox="0, 0, 400,528"><g id="svgg"><path id="path0" d="M342.000 0.654 C 325.757 3.398,304.734 12.927,282.636 27.561 L 277.438 31.004 270.302 27.542 C 220.567 3.412,162.340 4.226,113.667 29.732 C 31.594 72.740,-3.015 172.181,34.422 257.420 C 36.722 262.658,37.112 263.097,35.650 258.807 C 16.218 201.789,26.343 139.272,60.824 103.367 C 91.232 71.703,133.269 83.679,135.834 124.736 C 135.940 126.439,136.089 128.726,136.164 129.816 C 136.992 141.850,133.946 160.502,128.650 175.833 C 126.249 182.786,123.777 188.948,119.424 198.833 C 116.347 205.820,109.615 219.727,99.739 239.500 C 68.782 301.478,60.404 325.764,61.084 351.545 C 61.955 384.555,84.624 395.493,121.667 380.776 C 156.799 366.819,198.121 336.223,236.173 295.993 C 241.822 290.021,247.438 283.911,253.322 277.333 C 256.685 273.575,259.979 269.900,260.643 269.167 C 262.655 266.943,269.729 258.698,273.833 253.791 C 275.961 251.248,278.267 248.492,278.958 247.667 C 297.595 225.400,319.306 195.028,333.179 171.818 C 354.430 136.264,370.892 95.613,377.786 61.667 C 386.487 18.829,372.776 -4.546,342.000 0.654 M342.013 18.862 C 355.407 22.797,358.240 38.445,350.187 64.000 C 348.083 70.678,343.541 82.038,340.942 87.127 L 340.110 88.754 337.601 85.127 C 325.177 67.172,303.686 46.308,289.107 38.049 C 288.334 37.611,288.394 37.562,294.089 33.997 C 313.895 21.599,331.935 15.902,342.013 18.862 M366.551 154.036 C 366.478 154.291,366.079 156.000,365.663 157.833 C 358.440 189.690,322.613 248.207,283.520 292.000 C 257.392 321.270,225.725 347.520,201.622 359.890 C 197.808 361.847,198.046 361.923,206.167 361.350 C 300.003 354.726,372.211 274.697,369.191 180.667 C 368.786 168.074,367.176 151.831,366.551 154.036 M14.226 479.917 C 20.562 492.704,28.305 508.382,31.434 514.756 L 37.121 526.345 45.285 526.256 L 53.449 526.167 70.058 491.527 C 79.193 472.475,86.667 456.837,86.667 456.777 C 86.667 456.716,82.654 456.667,77.750 456.668 L 68.833 456.669 57.298 481.068 C 50.953 494.488,45.628 505.509,45.464 505.558 C 45.301 505.608,39.622 494.627,32.846 481.157 L 20.524 456.667 11.615 456.667 L 2.706 456.667 14.226 479.917 M113.667 491.500 L 113.667 526.000 121.333 526.000 L 129.000 526.000 129.000 502.000 C 129.000 483.022,129.087 478.000,129.417 478.000 C 129.646 478.001,139.732 488.801,151.830 502.000 L 173.826 526.000 182.246 526.000 L 190.667 526.000 190.667 491.500 L 190.667 457.000 182.900 457.000 L 175.133 457.000 175.276 480.500 C 175.400 501.105,175.357 504.000,174.924 504.000 C 174.652 504.000,164.880 493.425,153.208 480.500 L 131.986 457.000 122.826 457.000 L 113.667 457.000 113.667 491.500 M233.333 491.481 L 233.333 526.000 241.667 526.000 L 250.000 526.000 250.000 513.500 L 250.000 501.000 264.798 501.000 C 283.398 501.000,287.235 500.646,292.460 498.447 C 310.586 490.818,309.732 465.439,291.133 458.982 C 285.981 457.194,286.696 457.236,259.083 457.094 L 233.333 456.963 233.333 491.481 M324.333 463.830 L 324.333 470.659 338.083 470.746 L 351.833 470.833 351.919 498.417 L 352.004 526.000 360.169 526.000 L 368.333 526.000 368.333 498.333 L 368.333 470.667 382.667 470.667 L 397.000 470.667 397.000 463.833 L 397.000 457.000 360.667 457.000 L 324.333 457.000 324.333 463.830 M282.455 468.984 C 291.027 471.987,292.337 484.080,284.523 488.075 C 281.318 489.713,280.724 489.769,264.917 489.913 L 250.000 490.049 250.000 479.003 L 250.000 467.957 265.083 468.070 C 280.015 468.181,280.190 468.190,282.455 468.984 " stroke="none" fill="#046cb4" fill-rule="evenodd"></path><path id="path1" d="M317.821 310.417 L 316.167 312.167 317.917 310.513 C 319.543 308.975,319.820 308.667,319.571 308.667 C 319.518 308.667,318.731 309.454,317.821 310.417 M220.146 312.417 L 219.167 313.500 220.250 312.521 C 220.846 311.983,221.333 311.495,221.333 311.438 C 221.333 311.180,221.058 311.407,220.146 312.417 M1.667 456.110 C 1.667 456.177,9.534 472.117,19.150 491.532 L 36.634 526.833 45.244 526.922 L 53.854 527.011 70.760 491.747 C 80.059 472.351,87.667 456.371,87.667 456.236 C 87.667 456.101,83.305 456.030,77.973 456.078 L 68.280 456.167 57.654 478.667 C 51.809 491.042,46.672 501.906,46.238 502.809 L 45.448 504.451 33.260 480.309 L 21.072 456.167 11.370 456.078 C 6.033 456.030,1.667 456.044,1.667 456.110 M112.333 491.500 L 112.333 527.000 121.164 527.000 L 129.996 527.000 130.081 503.559 L 130.167 480.119 151.650 503.559 L 173.134 527.000 182.400 527.000 L 191.667 527.000 191.667 491.500 L 191.667 456.000 182.783 456.000 L 173.900 456.000 174.078 479.036 C 174.248 500.948,174.228 502.041,173.675 501.452 C 173.356 501.112,163.993 490.746,152.869 478.417 L 132.644 456.000 122.489 456.000 L 112.333 456.000 112.333 491.500 M232.333 491.500 L 232.333 527.000 241.667 527.000 L 251.000 527.000 251.000 514.524 L 251.000 502.048 268.250 501.922 L 285.500 501.796 288.737 500.920 C 300.331 497.785,306.513 490.147,306.477 479.000 C 306.443 468.366,301.283 461.267,291.068 457.803 C 285.935 456.062,284.772 456.000,257.476 456.000 L 232.333 456.000 232.333 491.500 M323.333 464.000 L 323.333 472.000 337.000 472.000 L 350.667 472.000 350.667 499.500 L 350.667 527.000 360.167 527.000 L 369.667 527.000 369.667 499.500 L 369.667 472.000 383.833 472.000 L 398.000 472.000 398.000 464.000 L 398.000 456.000 360.667 456.000 L 323.333 456.000 323.333 464.000 M20.581 456.750 C 20.762 456.979,26.428 468.102,33.172 481.467 L 45.434 505.767 46.009 504.633 C 46.325 504.010,51.501 493.075,57.511 480.333 C 63.521 467.592,68.583 456.979,68.760 456.750 C 69.220 456.154,86.667 456.145,86.667 456.740 C 86.667 456.964,79.204 472.716,70.083 491.745 L 53.500 526.344 45.242 526.255 L 36.984 526.167 19.825 491.534 C 10.388 472.487,2.667 456.774,2.667 456.618 C 2.667 456.133,20.195 456.262,20.581 456.750 M153.138 480.256 C 164.673 493.040,174.376 503.547,174.702 503.604 C 175.265 503.703,175.284 502.597,175.093 480.354 L 174.893 457.000 182.780 457.000 L 190.667 457.000 190.667 491.500 L 190.667 526.000 182.177 526.000 L 173.688 526.000 151.832 502.167 C 139.811 489.058,129.757 478.333,129.488 478.333 C 129.064 478.333,129.000 481.462,129.000 502.167 L 129.000 526.000 121.167 526.000 L 113.333 526.000 113.333 491.500 L 113.333 457.000 122.750 457.006 L 132.167 457.011 153.138 480.256 M285.780 457.500 C 298.712 459.755,306.335 468.554,305.562 480.333 C 304.906 490.329,299.015 497.040,288.357 499.935 L 285.167 500.802 267.583 500.922 L 250.000 501.042 250.000 513.521 L 250.000 526.000 241.667 526.000 L 233.333 526.000 233.333 491.500 L 233.333 457.000 258.123 457.000 C 278.663 457.000,283.404 457.086,285.780 457.500 M397.000 464.000 L 397.000 471.000 382.833 471.000 L 368.667 471.000 368.667 498.500 L 368.667 526.000 360.167 526.000 L 351.667 526.000 351.667 498.500 L 351.667 471.000 338.000 471.000 L 324.333 471.000 324.333 464.000 L 324.333 457.000 360.667 457.000 L 397.000 457.000 397.000 464.000 M250.000 479.000 L 250.000 490.000 262.417 489.994 C 285.687 489.983,289.167 488.550,289.167 478.975 C 289.167 469.454,285.752 468.018,263.083 468.007 L 250.000 468.000 250.000 479.000 M278.333 469.345 C 286.393 470.390,290.558 476.355,287.816 482.927 C 285.700 488.002,282.981 488.712,264.917 488.910 L 251.000 489.062 251.000 479.031 L 251.000 469.000 263.417 469.010 C 270.246 469.016,276.958 469.166,278.333 469.345 " stroke="none" fill="#0483c3" fill-rule="evenodd"></path><path id="path2" d="M7.103 456.583 C 9.635 456.639,13.685 456.639,16.103 456.582 C 18.521 456.525,16.450 456.479,11.500 456.479 C 6.550 456.479,4.571 456.526,7.103 456.583 M73.437 456.583 C 75.968 456.639,80.018 456.639,82.437 456.582 C 84.855 456.525,82.783 456.479,77.833 456.479 C 72.883 456.479,70.905 456.526,73.437 456.583 M113.494 491.500 C 113.494 510.567,113.534 518.318,113.583 508.725 C 113.632 499.131,113.632 483.531,113.583 474.058 C 113.534 464.584,113.494 472.433,113.494 491.500 M175.151 478.000 C 175.151 484.875,175.195 487.688,175.250 484.250 C 175.304 480.813,175.304 475.188,175.250 471.750 C 175.195 468.313,175.151 471.125,175.151 478.000 M337.998 470.915 L 351.663 471.007 351.751 498.504 L 351.839 526.000 351.836 498.417 L 351.833 470.833 338.083 470.828 L 324.333 470.822 337.998 470.915 M368.415 498.417 L 368.496 526.167 368.583 498.587 L 368.671 471.007 382.919 470.917 L 397.167 470.826 382.750 470.746 L 368.333 470.667 368.415 498.417 M305.411 477.333 C 305.411 477.975,305.479 478.238,305.563 477.917 C 305.647 477.596,305.647 477.071,305.563 476.750 C 305.479 476.429,305.411 476.692,305.411 477.333 M289.440 479.000 C 289.440 480.192,289.501 480.679,289.574 480.083 C 289.648 479.488,289.648 478.512,289.574 477.917 C 289.501 477.321,289.440 477.808,289.440 479.000 M129.333 478.235 C 129.608 478.336,130.208 478.737,130.667 479.126 L 131.500 479.833 130.692 478.917 C 130.247 478.412,129.647 478.012,129.359 478.026 C 128.909 478.049,128.905 478.079,129.333 478.235 M305.411 480.667 C 305.411 481.308,305.479 481.571,305.563 481.250 C 305.647 480.929,305.647 480.404,305.563 480.083 C 305.479 479.762,305.411 480.025,305.411 480.667 M133.333 482.104 C 133.333 482.162,133.821 482.649,134.417 483.188 L 135.500 484.167 134.521 483.083 C 133.608 482.074,133.333 481.847,133.333 482.104 M137.000 486.104 C 137.000 486.162,137.487 486.649,138.083 487.188 L 139.167 488.167 138.188 487.083 C 137.275 486.074,137.000 485.847,137.000 486.104 M281.417 500.896 C 281.737 500.980,282.262 500.980,282.583 500.896 C 282.904 500.813,282.642 500.744,282.000 500.744 C 281.358 500.744,281.096 500.813,281.417 500.896 M155.333 506.104 C 155.333 506.162,155.821 506.649,156.417 507.188 L 157.500 508.167 156.521 507.083 C 155.608 506.074,155.333 505.847,155.333 506.104 M159.000 510.104 C 159.000 510.162,159.487 510.649,160.083 511.188 L 161.167 512.167 160.188 511.083 C 159.275 510.074,159.000 509.847,159.000 510.104 M162.667 514.104 C 162.667 514.162,163.154 514.649,163.750 515.188 L 164.833 516.167 163.854 515.083 C 162.942 514.074,162.667 513.847,162.667 514.104 M166.333 518.104 C 166.333 518.162,166.821 518.649,167.417 519.188 L 168.500 520.167 167.521 519.083 C 166.608 518.074,166.333 517.847,166.333 518.104 " stroke="none" fill="#0474bc" fill-rule="evenodd"></path><path id="path3" d="M262.479 313.750 L 261.500 314.833 262.583 313.854 C 263.179 313.316,263.667 312.828,263.667 312.771 C 263.667 312.513,263.392 312.740,262.479 313.750 " stroke="none" fill="#0474b4" fill-rule="evenodd"></path><path id="path4" d="" stroke="none" fill="#086cb4" fill-rule="evenodd"></path></g></svg>